<svg version="1.2" xmlns="http://www.w3.org/2000/svg" viewBox="0 0 185 185" width="185" height="185"><style>tspan{white-space:pre}.a{fill:#ecc8e6}.b{fill:#590054}.c{font-size: 28px;fill: #ecc8e6;font-weight: 400;font-family: "FiraMono-Regular", "Fira Mono"}.d{font-size: 15px;fill: #ecc8e6;font-weight: 400;font-family: "FiraMono-Regular", "Fira Mono"}.e{font-size: 18px;fill: #ecc8e6;font-weight: 400;font-family: "Assistant-Regular", "Assistant"}.f{font-size: 112px;fill: #c103b6;font-weight: 600;font-family: "Heebo-SemiBold", "Heebo"}</style><path class="a" d="m157.5 70.4c2.8 10.1 3.4 20.7 2.1 31.2-1.4 10.4-4.8 20.5-10.1 29.6-5.2 9.1-12.2 17.1-20.6 23.5-8.3 6.4-17.9 11.1-28 13.8-10.2 2.8-20.8 3.4-31.2 2.1-10.4-1.4-20.5-4.8-29.6-10.1-9.1-5.2-17.1-12.2-23.5-20.6-6.4-8.3-11.1-17.9-13.9-28-2.7-10.2-3.4-20.8-2-31.2 1.4-10.4 4.8-20.5 10-29.6 5.3-9.1 12.3-17.1 20.6-23.5 8.4-6.4 17.9-11.1 28.1-13.9 10.1-2.7 20.7-3.4 31.2-2 10.4 1.4 20.5 4.8 29.6 10 9.1 5.3 17.1 12.3 23.5 20.6 6.4 8.4 11.1 17.9 13.8 28.1z"/><path class="b" d="m151.6 92.6c-37.1-6.2-96.6 21.8-151.5-2.7q-0.1 2.7 0.1 5.5 0.1 2.8 0.4 5.6 0.4 2.7 0.9 5.5 0.5 2.7 1.2 5.4c2.8 10.1 7.5 19.7 13.9 28 6.4 8.4 14.4 15.4 23.5 20.6 9.1 5.3 19.2 8.7 29.6 10.1 10.4 1.3 21 0.7 31.2-2.1 8.1-2.2 15.9-5.6 23-10.2 7.1-4.7 13.4-10.4 18.7-17 5.2-6.5 9.5-13.9 12.5-21.8 2.9-7.9 4.7-16.2 5-24.7q-4-1.5-8.5-2.2z"/><text style="transform:matrix(1,0,0,1,38.45,139.071)" ><tspan x="0" y="0" class="c">A</tspan><tspan  y="0" class="d"> </tspan><tspan  y="0" class="c">-&gt;</tspan><tspan  y="0" class="d"> </tspan><tspan  y="0" class="c">B
</tspan></text><path class="b" d="m91.4 61.4c0.6-0.7 0.6-1.7 0-2.3l-6.5-6.5c-0.6-0.6-1.6-0.6-2.3 0-0.6 0.7-0.6 1.7 0 2.3l3.7 3.7h-18.7c-0.9 0-1.6 0.7-1.6 1.6 0 0.9 0.7 1.7 1.6 1.7h18.7l-3.7 3.7c-0.6 0.6-0.6 1.6 0 2.2 0.7 0.7 1.7 0.7 2.3 0 0 0 6.5-6.4 6.5-6.4z"/><path fill-rule="evenodd" class="b" d="m97.9 44.6h30v30.1h-30z"/><text style="transform:matrix(1,0,0,1,106.622,66.291)" ><tspan x="0" y="0" class="e">B
</tspan></text><path fill-rule="evenodd" class="b" d="m30.4 44.6h30v30.1h-30z"/><text style="transform:matrix(1,0,0,1,40.689,66.186)" ><tspan x="0" y="0" class="e">A
</tspan></text><text style="transform:matrix(1,0,0,1,126,126)" ><tspan x="0" y="0" class="f">+
</tspan></text></svg>